<svg width="24" height="24" viewBox="0 0 24 24" fill="none" xmlns="http://www.w3.org/2000/svg">
<path d="M11.872 21.765C10.682 21.765 9.88798 21.203 9.17898 20.708C8.67498 20.351 8.20298 20.012 7.64598 19.918C7.38078 19.8724 7.11207 19.8503 6.84298 19.852C6.37098 19.852 5.99598 19.923 5.72898 19.977C5.55898 20.007 5.41698 20.035 5.30498 20.035C5.18898 20.035 5.04198 20.003 4.98498 19.807C4.93498 19.647 4.90398 19.495 4.87298 19.348C4.79298 18.978 4.72598 18.751 4.58698 18.728C3.09798 18.501 2.20698 18.158 2.03298 17.752C2.01898 17.708 2.00198 17.662 2.00198 17.627C1.99198 17.503 2.08198 17.4 2.20698 17.377C3.38798 17.182 4.44898 16.553 5.34498 15.519C6.04098 14.716 6.37998 13.94 6.41098 13.856C6.41098 13.846 6.41998 13.846 6.41998 13.846C6.58998 13.495 6.62498 13.196 6.52198 12.951C6.32998 12.491 5.69698 12.295 5.26498 12.161C5.15398 12.131 5.05998 12.095 4.97998 12.068C4.60998 11.921 3.99398 11.608 4.07498 11.176C4.13298 10.864 4.54698 10.641 4.88598 10.641C4.97998 10.641 5.05998 10.655 5.12598 10.691C5.50598 10.864 5.84898 10.953 6.14298 10.953C6.50898 10.953 6.68298 10.815 6.72698 10.771C6.71767 10.5732 6.706 10.3755 6.69198 10.178C6.60198 8.813 6.49998 7.119 6.93198 6.148C8.22998 3.241 10.985 3.008 11.801 3.008L12.157 3H12.207C13.022 3 15.777 3.227 17.075 6.139C17.512 7.11 17.405 8.809 17.315 10.169L17.306 10.236C17.298 10.418 17.284 10.592 17.276 10.771C17.32 10.806 17.48 10.94 17.81 10.944C18.096 10.936 18.408 10.842 18.764 10.681C18.8625 10.6384 18.9686 10.616 19.076 10.615C19.201 10.615 19.326 10.645 19.433 10.681H19.442C19.741 10.793 19.937 11.002 19.937 11.221C19.946 11.426 19.785 11.738 19.023 12.046C18.943 12.076 18.849 12.113 18.738 12.139C18.314 12.269 17.681 12.474 17.48 12.929C17.369 13.169 17.413 13.477 17.583 13.825C17.583 13.833 17.592 13.833 17.592 13.833C17.641 13.958 18.929 16.883 21.796 17.36C21.8546 17.3699 21.9076 17.4006 21.9453 17.4466C21.983 17.4926 22.0028 17.5506 22.001 17.61C22.0017 17.6549 21.991 17.6993 21.97 17.739C21.796 18.149 20.913 18.483 19.415 18.715C19.277 18.737 19.21 18.965 19.13 19.335C19.0982 19.4892 19.0612 19.6423 19.019 19.794C18.974 19.941 18.88 20.021 18.719 20.021H18.698C18.5554 20.0182 18.4134 20.0018 18.274 19.972C17.9075 19.8939 17.5337 19.855 17.159 19.856C16.8903 19.8566 16.6221 19.879 16.357 19.923C15.804 20.013 15.327 20.356 14.823 20.713C14.105 21.203 13.307 21.765 12.126 21.765H11.872Z" fill="black"/>
</svg>
