<svg width="24" height="24" viewBox="0 0 24 24" fill="none" xmlns="http://www.w3.org/2000/svg">
<path d="M21.129 4.34903C20.646 3.82303 19.946 3.54203 19.05 3.51603C16.52 3.43303 14.731 4.79303 13.733 7.55603C13.7071 7.62694 13.7012 7.70358 13.7158 7.77763C13.7305 7.85167 13.7651 7.92029 13.816 7.97603C13.8659 8.03139 13.9302 8.07175 14.0017 8.09259C14.0733 8.11343 14.1492 8.11393 14.221 8.09403C14.509 8.01403 14.793 7.97403 15.068 7.97403C15.437 7.97403 15.928 8.04203 16.171 8.36803C16.359 8.61803 16.384 8.99403 16.247 9.48403C16.132 9.89703 15.536 11.004 14.798 12.174C13.9 13.601 13.404 14.241 13.261 14.241C12.787 14.241 11.074 6.56803 11.027 6.39903C10.535 4.64103 10.289 3.76003 8.69001 3.76003C7.47401 3.75803 4.75801 6.00403 2.52801 7.96103L2.18601 8.26003C2.08233 8.35026 2.01695 8.47662 2.0032 8.61337C1.98945 8.75013 2.02836 8.88697 2.11201 8.99603L2.52701 9.53603C2.60996 9.64554 2.73245 9.71825 2.86831 9.73862C3.00416 9.75898 3.14259 9.7254 3.25401 9.64503L3.27701 9.62803C4.00001 9.11103 4.68001 8.62103 5.19501 8.59403C5.75401 8.56703 6.23901 9.44903 6.81701 11.549C7.91901 15.627 9.59201 20.489 11.31 20.489C13.104 20.489 15.245 18.951 18.013 15.313C20.518 12.019 21.859 9.40803 21.946 7.50703C22.01 6.07203 21.736 5.00903 21.129 4.34903Z" fill="black"/>
</svg>
