<svg width="149" height="27" viewBox="0 0 149 27" fill="none" xmlns="http://www.w3.org/2000/svg">
<path d="M12.92 26.48C10.5467 26.48 8.44 25.9333 6.6 24.84C4.78666 23.7466 3.37333 22.2533 2.36 20.36C1.34666 18.4666 0.839996 16.36 0.839996 14.04C0.839996 11.5066 1.44 9.21331 2.64 7.15998C3.86666 5.10665 5.50666 3.49331 7.56 2.31998C9.64 1.14665 11.9467 0.559979 14.48 0.559979C16.9067 0.559979 19.0267 1.09331 20.84 2.15998C22.6533 3.22665 24.0533 4.70665 25.04 6.59998C26.0267 8.46665 26.52 10.5733 26.52 12.92C26.52 15.56 25.8933 17.9066 24.64 19.96C23.4133 22.0133 21.76 23.6133 19.68 24.76C17.6267 25.9066 15.3733 26.48 12.92 26.48ZM14.68 25.44C16.5733 25.44 18.2133 25 19.6 24.12C21.0133 23.2133 22.0933 21.9466 22.84 20.32C23.5867 18.6933 23.96 16.8133 23.96 14.68C23.96 12.2266 23.48 9.99998 22.52 7.99998C21.5867 5.99998 20.2667 4.42665 18.56 3.27998C16.88 2.10665 14.9867 1.51998 12.88 1.51998C11.04 1.51998 9.4 1.95998 7.96 2.83998C6.52 3.71998 5.38666 4.98665 4.56 6.63998C3.76 8.26665 3.36 10.1733 3.36 12.36C3.36 14.7866 3.85333 17 4.84 19C5.82666 21 7.17333 22.5733 8.88 23.72C10.6133 24.8666 12.5467 25.44 14.68 25.44Z" fill="black"/>
<path d="M52.6178 25.52C52.7511 25.52 52.8178 25.6 52.8178 25.76C52.8178 25.92 52.7511 26 52.6178 26H47.5778C47.3645 26 46.9111 25.4533 46.2178 24.36C45.5245 23.24 44.6978 21.6933 43.7378 19.72C42.7778 17.72 41.8178 15.48 40.8578 13C40.0045 13.1866 39.2311 13.28 38.5378 13.28C38.1111 13.28 37.5511 13.2533 36.8578 13.2V22.76C36.8578 23.5866 36.9245 24.1866 37.0578 24.56C37.2178 24.9333 37.5111 25.1866 37.9378 25.32C38.3911 25.4533 39.0978 25.52 40.0578 25.52C40.1378 25.52 40.1778 25.6 40.1778 25.76C40.1778 25.92 40.1378 26 40.0578 26C39.2845 26 38.6711 25.9866 38.2178 25.96L35.4978 25.92L32.8578 25.96C32.3778 25.9866 31.7111 26 30.8578 26C30.7778 26 30.7378 25.92 30.7378 25.76C30.7378 25.6 30.7778 25.52 30.8578 25.52C31.8445 25.52 32.5778 25.4533 33.0578 25.32C33.5378 25.16 33.8711 24.8933 34.0578 24.52C34.2445 24.1466 34.3378 23.56 34.3378 22.76L34.2978 4.23998C34.2978 3.43998 34.2178 2.85331 34.0578 2.47998C33.8978 2.10665 33.5911 1.85331 33.1378 1.71998C32.7111 1.55998 32.0178 1.47998 31.0578 1.47998C30.9511 1.47998 30.8845 1.39998 30.8578 1.23998C30.8578 1.07998 30.9111 0.999981 31.0178 0.999981L32.9778 1.03998C34.0445 1.09331 34.8978 1.11998 35.5378 1.11998C36.0445 1.11998 36.4978 1.10665 36.8978 1.07998C37.3245 1.05331 37.6845 1.02665 37.9778 0.999981C38.8045 0.91998 39.5378 0.87998 40.1778 0.87998C42.3645 0.87998 44.0445 1.31998 45.2178 2.19998C46.3911 3.07998 46.9778 4.30665 46.9778 5.87998C46.9778 7.13331 46.6178 8.31998 45.8978 9.43998C45.1778 10.56 44.2045 11.4533 42.9778 12.12C44.7111 15.96 46.0845 18.8133 47.0978 20.68C48.1378 22.52 49.0578 23.7866 49.8578 24.48C50.6845 25.1733 51.6045 25.52 52.6178 25.52ZM36.8578 12.2C37.8711 12.3066 38.6578 12.36 39.2178 12.36C41.0311 12.36 42.3245 11.96 43.0978 11.16C43.8711 10.3333 44.2578 9.02665 44.2578 7.23998C44.2578 5.21331 43.8045 3.74665 42.8978 2.83998C42.0178 1.90665 40.8445 1.43998 39.3778 1.43998C38.6578 1.43998 38.1378 1.49331 37.8178 1.59998C37.4978 1.70665 37.2578 1.95998 37.0978 2.35998C36.9378 2.75998 36.8578 3.41331 36.8578 4.31998V12.2Z" fill="black"/>
<path d="M79.725 25.52C79.805 25.52 79.845 25.6 79.845 25.76C79.845 25.92 79.805 26 79.725 26C79.2717 26 78.5917 25.9733 77.685 25.92C76.6183 25.8666 75.7917 25.84 75.205 25.84C74.6183 25.84 73.845 25.8666 72.885 25.92C72.0317 25.9733 71.3783 26 70.925 26C70.8183 26 70.765 25.92 70.765 25.76C70.765 25.6 70.8183 25.52 70.925 25.52C71.885 25.52 72.565 25.4266 72.965 25.24C73.365 25.0533 73.565 24.7333 73.565 24.28C73.565 23.9333 73.4317 23.3866 73.165 22.64L69.565 12.8H62.885L59.645 20.72C59.1383 21.9733 58.885 22.9466 58.885 23.64C58.885 24.36 59.1383 24.8533 59.645 25.12C60.1783 25.3866 60.965 25.52 62.005 25.52C62.1117 25.52 62.165 25.6 62.165 25.76C62.165 25.92 62.0983 26 61.965 26C61.645 26 61.005 25.9733 60.045 25.92C58.925 25.8666 58.0717 25.84 57.485 25.84C56.845 25.84 56.0983 25.8666 55.245 25.92C54.4983 25.9733 53.885 26 53.405 26C53.2983 26 53.245 25.92 53.245 25.76C53.245 25.6 53.2983 25.52 53.405 25.52C54.2583 25.52 55.0983 25.1733 55.925 24.48C56.7783 23.7866 57.5517 22.6533 58.245 21.08L66.885 0.599979C66.9383 0.51998 67.0583 0.47998 67.245 0.47998C67.485 0.47998 67.645 0.533314 67.725 0.639981L75.805 22.64C76.125 23.4666 76.405 24.0666 76.645 24.44C76.9117 24.8133 77.2717 25.0933 77.725 25.28C78.1783 25.44 78.845 25.52 79.725 25.52ZM63.245 11.96H69.245L66.405 4.23998L63.245 11.96Z" fill="black"/>
<path d="M95.0394 26.48C91.9194 26.48 89.3327 25.84 87.2794 24.56C85.2527 23.2533 83.7727 21.6 82.8394 19.6C81.906 17.6 81.4394 15.4933 81.4394 13.28C81.4394 10.8 82.0794 8.59998 83.3594 6.67998C84.6394 4.73331 86.3194 3.22665 88.3994 2.15998C90.506 1.09331 92.7594 0.559979 95.1594 0.559979C96.466 0.559979 97.7727 0.693313 99.0794 0.959979C100.386 1.19998 101.439 1.53331 102.239 1.95998C102.453 2.09331 102.586 2.21331 102.639 2.31998C102.693 2.42665 102.733 2.62665 102.759 2.91998L103.199 7.35998C103.199 7.46665 103.133 7.53331 102.999 7.55998C102.893 7.55998 102.813 7.51998 102.759 7.43998C102.119 5.38665 101.013 3.87998 99.4394 2.91998C97.8927 1.93331 95.986 1.43998 93.7194 1.43998C91.7994 1.43998 90.1327 1.87998 88.7194 2.75998C87.3327 3.63998 86.266 4.89331 85.5194 6.51998C84.7727 8.11998 84.3994 9.99998 84.3994 12.16C84.3994 14.6666 84.8794 16.9733 85.8394 19.08C86.7994 21.1866 88.0927 22.8533 89.7194 24.08C91.3727 25.3066 93.1994 25.92 95.1994 25.92C96.8794 25.92 98.4127 25.4 99.7994 24.36C101.186 23.2933 102.293 21.7066 103.119 19.6C103.146 19.4933 103.226 19.4533 103.359 19.48C103.493 19.5066 103.559 19.56 103.559 19.64L103.159 24.08C103.106 24.4266 103.053 24.64 102.999 24.72C102.946 24.8 102.799 24.8933 102.559 25C100.159 25.9866 97.6527 26.48 95.0394 26.48Z" fill="black"/>
<path d="M107.552 26C107.499 26 107.459 25.92 107.432 25.76C107.432 25.6 107.472 25.52 107.552 25.52C108.485 25.52 109.165 25.4533 109.592 25.32C110.045 25.1866 110.352 24.9333 110.512 24.56C110.672 24.16 110.752 23.56 110.752 22.76V4.23998C110.752 3.43998 110.672 2.85331 110.512 2.47998C110.379 2.10665 110.085 1.85331 109.632 1.71998C109.205 1.55998 108.539 1.47998 107.632 1.47998C107.552 1.47998 107.512 1.39998 107.512 1.23998C107.512 1.07998 107.552 0.999981 107.632 0.999981L109.392 1.03998C110.459 1.09331 111.325 1.11998 111.992 1.11998C112.685 1.11998 113.565 1.09331 114.632 1.03998L116.552 0.999981C116.605 0.999981 116.632 1.07998 116.632 1.23998C116.632 1.39998 116.605 1.47998 116.552 1.47998C115.592 1.47998 114.885 1.55998 114.432 1.71998C114.005 1.85331 113.712 2.11998 113.552 2.51998C113.419 2.89331 113.339 3.47998 113.312 4.27998V22.6C113.339 23.3733 113.419 23.9466 113.552 24.32C113.712 24.6666 113.992 24.9066 114.392 25.04C114.792 25.1733 115.432 25.24 116.312 25.24H120.712C122.365 25.24 123.632 24.7866 124.512 23.88C125.392 22.9733 126.019 21.6533 126.392 19.92C126.392 19.84 126.459 19.8 126.592 19.8C126.672 19.8 126.739 19.8133 126.792 19.84C126.872 19.8666 126.912 19.9066 126.912 19.96C126.725 21.6933 126.632 23.5066 126.632 25.4C126.632 25.6133 126.579 25.7733 126.472 25.88C126.365 25.96 126.192 26 125.952 26H107.552Z" fill="black"/>
<path d="M148.319 20.04C148.319 19.96 148.386 19.92 148.519 19.92C148.599 19.92 148.679 19.9466 148.759 20C148.839 20.0266 148.866 20.0666 148.839 20.12C148.599 21.5066 148.479 23.2666 148.479 25.4C148.479 25.6133 148.439 25.7733 148.359 25.88C148.279 25.96 148.119 26 147.879 26H129.959C129.852 26 129.799 25.92 129.799 25.76C129.799 25.6 129.839 25.52 129.919 25.52C130.879 25.52 131.572 25.4533 131.999 25.32C132.452 25.1866 132.759 24.9333 132.919 24.56C133.079 24.16 133.159 23.56 133.159 22.76V4.23998C133.106 3.43998 132.999 2.85331 132.839 2.47998C132.679 2.10665 132.372 1.85331 131.919 1.71998C131.492 1.55998 130.812 1.47998 129.879 1.47998C129.799 1.47998 129.759 1.39998 129.759 1.23998C129.759 1.07998 129.786 0.999981 129.839 0.999981H146.759C146.866 0.999981 146.932 1.02665 146.959 1.07998C147.012 1.13331 147.039 1.22665 147.039 1.35998C147.119 2.82665 147.159 4.47998 147.159 6.31998C147.159 6.42665 147.079 6.47998 146.919 6.47998C146.759 6.47998 146.679 6.42665 146.679 6.31998C146.546 4.90665 146.092 3.77331 145.319 2.91998C144.572 2.03998 143.599 1.59998 142.399 1.59998H138.799C137.866 1.59998 137.186 1.66665 136.759 1.79998C136.332 1.93331 136.039 2.18665 135.879 2.55998C135.746 2.90665 135.666 3.47998 135.639 4.27998V12.56H141.879C143.052 12.56 143.879 12.36 144.359 11.96C144.839 11.5333 145.066 10.8 145.039 9.75998C145.039 9.65331 145.119 9.59998 145.279 9.59998C145.439 9.59998 145.506 9.65331 145.479 9.75998V11.08V13L145.519 14.76C145.572 15.56 145.599 16.2133 145.599 16.72C145.599 16.8266 145.506 16.88 145.319 16.88C145.159 16.88 145.079 16.8266 145.079 16.72C145.079 15.52 144.812 14.6666 144.279 14.16C143.772 13.6533 142.906 13.4 141.679 13.4H135.639V22.6C135.639 23.3733 135.719 23.9466 135.879 24.32C136.039 24.6666 136.332 24.9066 136.759 25.04C137.186 25.1733 137.852 25.24 138.759 25.24H143.559C144.679 25.24 145.666 24.7733 146.519 23.84C147.372 22.88 147.972 21.6133 148.319 20.04Z" fill="black"/>
</svg>
