<svg width="149" height="27" viewBox="0 0 149 27" fill="none" xmlns="http://www.w3.org/2000/svg">
<path d="M12.9201 26.48C10.5468 26.48 8.44009 25.9333 6.60009 24.84C4.78675 23.7466 3.37342 22.2533 2.36009 20.36C1.34675 18.4666 0.840088 16.36 0.840088 14.04C0.840088 11.5066 1.44009 9.21331 2.64009 7.15998C3.86676 5.10665 5.50675 3.49331 7.56009 2.31998C9.64009 1.14665 11.9468 0.559979 14.4801 0.559979C16.9068 0.559979 19.0268 1.09331 20.8401 2.15998C22.6534 3.22665 24.0534 4.70665 25.0401 6.59998C26.0268 8.46665 26.5201 10.5733 26.5201 12.92C26.5201 15.56 25.8934 17.9066 24.6401 19.96C23.4134 22.0133 21.7601 23.6133 19.6801 24.76C17.6268 25.9066 15.3734 26.48 12.9201 26.48ZM14.6801 25.44C16.5734 25.44 18.2134 25 19.6001 24.12C21.0134 23.2133 22.0934 21.9466 22.8401 20.32C23.5868 18.6933 23.9601 16.8133 23.9601 14.68C23.9601 12.2266 23.4801 9.99998 22.5201 7.99998C21.5868 5.99998 20.2668 4.42665 18.5601 3.27998C16.8801 2.10665 14.9868 1.51998 12.8801 1.51998C11.0401 1.51998 9.40009 1.95998 7.96009 2.83998C6.52009 3.71998 5.38675 4.98665 4.56009 6.63998C3.76009 8.26665 3.36009 10.1733 3.36009 12.36C3.36009 14.7866 3.85342 17 4.84009 19C5.82676 21 7.17342 22.5733 8.88009 23.72C10.6134 24.8666 12.5468 25.44 14.6801 25.44Z" fill="white"/>
<path d="M52.6179 25.52C52.7512 25.52 52.8179 25.6 52.8179 25.76C52.8179 25.92 52.7512 26 52.6179 26H47.5779C47.3646 26 46.9112 25.4533 46.2179 24.36C45.5246 23.24 44.6979 21.6933 43.7379 19.72C42.7779 17.72 41.8179 15.48 40.8579 13C40.0046 13.1866 39.2312 13.28 38.5379 13.28C38.1112 13.28 37.5512 13.2533 36.8579 13.2V22.76C36.8579 23.5866 36.9246 24.1866 37.0579 24.56C37.2179 24.9333 37.5112 25.1866 37.9379 25.32C38.3912 25.4533 39.0979 25.52 40.0579 25.52C40.1379 25.52 40.1779 25.6 40.1779 25.76C40.1779 25.92 40.1379 26 40.0579 26C39.2846 26 38.6712 25.9866 38.2179 25.96L35.4979 25.92L32.8579 25.96C32.3779 25.9866 31.7112 26 30.8579 26C30.7779 26 30.7379 25.92 30.7379 25.76C30.7379 25.6 30.7779 25.52 30.8579 25.52C31.8446 25.52 32.5779 25.4533 33.0579 25.32C33.5379 25.16 33.8712 24.8933 34.0579 24.52C34.2446 24.1466 34.3379 23.56 34.3379 22.76L34.2979 4.23998C34.2979 3.43998 34.2179 2.85331 34.0579 2.47998C33.8979 2.10665 33.5912 1.85331 33.1379 1.71998C32.7112 1.55998 32.0179 1.47998 31.0579 1.47998C30.9512 1.47998 30.8846 1.39998 30.8579 1.23998C30.8579 1.07998 30.9112 0.999981 31.0179 0.999981L32.9779 1.03998C34.0446 1.09331 34.8979 1.11998 35.5379 1.11998C36.0446 1.11998 36.4979 1.10665 36.8979 1.07998C37.3246 1.05331 37.6846 1.02665 37.9779 0.999981C38.8046 0.91998 39.5379 0.87998 40.1779 0.87998C42.3646 0.87998 44.0446 1.31998 45.2179 2.19998C46.3912 3.07998 46.9779 4.30665 46.9779 5.87998C46.9779 7.13331 46.6179 8.31998 45.8979 9.43998C45.1779 10.56 44.2046 11.4533 42.9779 12.12C44.7112 15.96 46.0846 18.8133 47.0979 20.68C48.1379 22.52 49.0579 23.7866 49.8579 24.48C50.6846 25.1733 51.6046 25.52 52.6179 25.52ZM36.8579 12.2C37.8712 12.3066 38.6579 12.36 39.2179 12.36C41.0312 12.36 42.3246 11.96 43.0979 11.16C43.8712 10.3333 44.2579 9.02665 44.2579 7.23998C44.2579 5.21331 43.8046 3.74665 42.8979 2.83998C42.0179 1.90665 40.8446 1.43998 39.3779 1.43998C38.6579 1.43998 38.1379 1.49331 37.8179 1.59998C37.4979 1.70665 37.2579 1.95998 37.0979 2.35998C36.9379 2.75998 36.8579 3.41331 36.8579 4.31998V12.2Z" fill="white"/>
<path d="M79.7251 25.52C79.8051 25.52 79.8451 25.6 79.8451 25.76C79.8451 25.92 79.8051 26 79.7251 26C79.2718 26 78.5918 25.9733 77.6851 25.92C76.6184 25.8666 75.7918 25.84 75.2051 25.84C74.6184 25.84 73.8451 25.8666 72.8851 25.92C72.0318 25.9733 71.3784 26 70.9251 26C70.8184 26 70.7651 25.92 70.7651 25.76C70.7651 25.6 70.8184 25.52 70.9251 25.52C71.8851 25.52 72.5651 25.4266 72.9651 25.24C73.3651 25.0533 73.5651 24.7333 73.5651 24.28C73.5651 23.9333 73.4317 23.3866 73.1651 22.64L69.5651 12.8H62.8851L59.6451 20.72C59.1384 21.9733 58.8851 22.9466 58.8851 23.64C58.8851 24.36 59.1384 24.8533 59.6451 25.12C60.1784 25.3866 60.9651 25.52 62.0051 25.52C62.1118 25.52 62.1651 25.6 62.1651 25.76C62.1651 25.92 62.0984 26 61.9651 26C61.6451 26 61.0051 25.9733 60.0451 25.92C58.9251 25.8666 58.0718 25.84 57.4851 25.84C56.8451 25.84 56.0984 25.8666 55.2451 25.92C54.4984 25.9733 53.8851 26 53.4051 26C53.2984 26 53.2451 25.92 53.2451 25.76C53.2451 25.6 53.2984 25.52 53.4051 25.52C54.2584 25.52 55.0984 25.1733 55.9251 24.48C56.7784 23.7866 57.5518 22.6533 58.2451 21.08L66.8851 0.599979C66.9384 0.51998 67.0584 0.47998 67.2451 0.47998C67.4851 0.47998 67.6451 0.533314 67.7251 0.639981L75.8051 22.64C76.1251 23.4666 76.4051 24.0666 76.6451 24.44C76.9117 24.8133 77.2718 25.0933 77.7251 25.28C78.1784 25.44 78.8451 25.52 79.7251 25.52ZM63.2451 11.96H69.2451L66.4051 4.23998L63.2451 11.96Z" fill="white"/>
<path d="M95.0395 26.48C91.9195 26.48 89.3328 25.84 87.2795 24.56C85.2528 23.2533 83.7728 21.6 82.8395 19.6C81.9061 17.6 81.4395 15.4933 81.4395 13.28C81.4395 10.8 82.0795 8.59998 83.3595 6.67998C84.6395 4.73331 86.3195 3.22665 88.3995 2.15998C90.5061 1.09331 92.7595 0.559979 95.1595 0.559979C96.4661 0.559979 97.7728 0.693313 99.0795 0.959979C100.386 1.19998 101.439 1.53331 102.239 1.95998C102.453 2.09331 102.586 2.21331 102.639 2.31998C102.693 2.42665 102.733 2.62665 102.759 2.91998L103.199 7.35998C103.199 7.46665 103.133 7.53331 102.999 7.55998C102.893 7.55998 102.813 7.51998 102.759 7.43998C102.119 5.38665 101.013 3.87998 99.4395 2.91998C97.8928 1.93331 95.9861 1.43998 93.7195 1.43998C91.7995 1.43998 90.1328 1.87998 88.7195 2.75998C87.3328 3.63998 86.2661 4.89331 85.5195 6.51998C84.7728 8.11998 84.3995 9.99998 84.3995 12.16C84.3995 14.6666 84.8795 16.9733 85.8395 19.08C86.7995 21.1866 88.0928 22.8533 89.7195 24.08C91.3728 25.3066 93.1995 25.92 95.1995 25.92C96.8795 25.92 98.4128 25.4 99.7995 24.36C101.186 23.2933 102.293 21.7066 103.119 19.6C103.146 19.4933 103.226 19.4533 103.359 19.48C103.493 19.5066 103.559 19.56 103.559 19.64L103.159 24.08C103.106 24.4266 103.053 24.64 102.999 24.72C102.946 24.8 102.799 24.8933 102.559 25C100.159 25.9866 97.6528 26.48 95.0395 26.48Z" fill="white"/>
<path d="M107.552 26C107.499 26 107.459 25.92 107.432 25.76C107.432 25.6 107.472 25.52 107.552 25.52C108.485 25.52 109.165 25.4533 109.592 25.32C110.045 25.1866 110.352 24.9333 110.512 24.56C110.672 24.16 110.752 23.56 110.752 22.76V4.23998C110.752 3.43998 110.672 2.85331 110.512 2.47998C110.379 2.10665 110.085 1.85331 109.632 1.71998C109.205 1.55998 108.539 1.47998 107.632 1.47998C107.552 1.47998 107.512 1.39998 107.512 1.23998C107.512 1.07998 107.552 0.999981 107.632 0.999981L109.392 1.03998C110.459 1.09331 111.325 1.11998 111.992 1.11998C112.685 1.11998 113.565 1.09331 114.632 1.03998L116.552 0.999981C116.605 0.999981 116.632 1.07998 116.632 1.23998C116.632 1.39998 116.605 1.47998 116.552 1.47998C115.592 1.47998 114.885 1.55998 114.432 1.71998C114.005 1.85331 113.712 2.11998 113.552 2.51998C113.419 2.89331 113.339 3.47998 113.312 4.27998V22.6C113.339 23.3733 113.419 23.9466 113.552 24.32C113.712 24.6666 113.992 24.9066 114.392 25.04C114.792 25.1733 115.432 25.24 116.312 25.24H120.712C122.365 25.24 123.632 24.7866 124.512 23.88C125.392 22.9733 126.019 21.6533 126.392 19.92C126.392 19.84 126.459 19.8 126.592 19.8C126.672 19.8 126.739 19.8133 126.792 19.84C126.872 19.8666 126.912 19.9066 126.912 19.96C126.725 21.6933 126.632 23.5066 126.632 25.4C126.632 25.6133 126.579 25.7733 126.472 25.88C126.365 25.96 126.192 26 125.952 26H107.552Z" fill="white"/>
<path d="M148.319 20.04C148.319 19.96 148.386 19.92 148.519 19.92C148.599 19.92 148.679 19.9466 148.759 20C148.839 20.0266 148.866 20.0666 148.839 20.12C148.599 21.5066 148.479 23.2666 148.479 25.4C148.479 25.6133 148.439 25.7733 148.359 25.88C148.279 25.96 148.119 26 147.879 26H129.959C129.852 26 129.799 25.92 129.799 25.76C129.799 25.6 129.839 25.52 129.919 25.52C130.879 25.52 131.572 25.4533 131.999 25.32C132.452 25.1866 132.759 24.9333 132.919 24.56C133.079 24.16 133.159 23.56 133.159 22.76V4.23998C133.106 3.43998 132.999 2.85331 132.839 2.47998C132.679 2.10665 132.372 1.85331 131.919 1.71998C131.492 1.55998 130.812 1.47998 129.879 1.47998C129.799 1.47998 129.759 1.39998 129.759 1.23998C129.759 1.07998 129.786 0.999981 129.839 0.999981H146.759C146.866 0.999981 146.932 1.02665 146.959 1.07998C147.012 1.13331 147.039 1.22665 147.039 1.35998C147.119 2.82665 147.159 4.47998 147.159 6.31998C147.159 6.42665 147.079 6.47998 146.919 6.47998C146.759 6.47998 146.679 6.42665 146.679 6.31998C146.546 4.90665 146.092 3.77331 145.319 2.91998C144.572 2.03998 143.599 1.59998 142.399 1.59998H138.799C137.866 1.59998 137.186 1.66665 136.759 1.79998C136.332 1.93331 136.039 2.18665 135.879 2.55998C135.746 2.90665 135.666 3.47998 135.639 4.27998V12.56H141.879C143.052 12.56 143.879 12.36 144.359 11.96C144.839 11.5333 145.066 10.8 145.039 9.75998C145.039 9.65331 145.119 9.59998 145.279 9.59998C145.439 9.59998 145.506 9.65331 145.479 9.75998V11.08V13L145.519 14.76C145.572 15.56 145.599 16.2133 145.599 16.72C145.599 16.8266 145.506 16.88 145.319 16.88C145.159 16.88 145.079 16.8266 145.079 16.72C145.079 15.52 144.812 14.6666 144.279 14.16C143.772 13.6533 142.906 13.4 141.679 13.4H135.639V22.6C135.639 23.3733 135.719 23.9466 135.879 24.32C136.039 24.6666 136.332 24.9066 136.759 25.04C137.186 25.1733 137.852 25.24 138.759 25.24H143.559C144.679 25.24 145.666 24.7733 146.519 23.84C147.372 22.88 147.972 21.6133 148.319 20.04Z" fill="white"/>
</svg>
